<svg xmlns="http://www.w3.org/2000/svg" width="900" height="520" viewBox="0 0 900 520" role="img" aria-labelledby="title desc">
  <title id="title">AI for mobility demand and decision models</title>
  <desc id="desc">A demand heatmap, route traces, and model nodes for mobility AI.</desc>
  <rect width="900" height="520" fill="#f8f8fb"/>
  <g transform="translate(88 124)">
    <rect width="312" height="280" rx="8" fill="#ffffff" stroke="#d9e0ea"/>
    <g transform="translate(28 28)">
      <rect width="48" height="48" fill="#d7edf0"/>
      <rect x="54" width="48" height="48" fill="#b7ded9"/>
      <rect x="108" width="48" height="48" fill="#f2d491"/>
      <rect x="162" width="48" height="48" fill="#e8a33a"/>
      <rect x="216" width="48" height="48" fill="#f6c15e"/>
      <rect y="54" width="48" height="48" fill="#e6edf7"/>
      <rect x="54" y="54" width="48" height="48" fill="#c8d7f1"/>
      <rect x="108" y="54" width="48" height="48" fill="#7254c7"/>
      <rect x="162" y="54" width="48" height="48" fill="#8b73d5"/>
      <rect x="216" y="54" width="48" height="48" fill="#d8cff4"/>
      <rect y="108" width="48" height="48" fill="#f2d491"/>
      <rect x="54" y="108" width="48" height="48" fill="#e8a33a"/>
      <rect x="108" y="108" width="48" height="48" fill="#159895"/>
      <rect x="162" y="108" width="48" height="48" fill="#8b73d5"/>
      <rect x="216" y="108" width="48" height="48" fill="#d7edf0"/>
      <rect y="162" width="48" height="48" fill="#d8cff4"/>
      <rect x="54" y="162" width="48" height="48" fill="#b7ded9"/>
      <rect x="108" y="162" width="48" height="48" fill="#159895"/>
      <rect x="162" y="162" width="48" height="48" fill="#f6c15e"/>
      <rect x="216" y="162" width="48" height="48" fill="#e6edf7"/>
    </g>
  </g>
  <g fill="none" stroke-linecap="round" stroke-linejoin="round">
    <path d="M432 172c44 34 82 58 128 70s86 12 145 50" stroke="#7254c7" stroke-width="9"/>
    <path d="M432 260c72-20 136-2 188 52 38 40 88 52 160 28" stroke="#159895" stroke-width="9"/>
    <path d="M432 352c42-72 110-106 204-102 56 2 94-16 122-54" stroke="#e8a33a" stroke-width="8" stroke-dasharray="20 16"/>
  </g>
  <g fill="#ffffff" stroke="#23324d" stroke-width="5">
    <circle cx="440" cy="172" r="20"/>
    <circle cx="560" cy="242" r="20"/>
    <circle cx="704" cy="292" r="20"/>
    <circle cx="432" cy="260" r="20"/>
    <circle cx="620" cy="312" r="20"/>
    <circle cx="780" cy="340" r="20"/>
    <circle cx="432" cy="352" r="20"/>
    <circle cx="636" cy="250" r="20"/>
    <circle cx="758" cy="196" r="20"/>
  </g>
  <g transform="translate(606 78)">
    <rect width="200" height="92" rx="8" fill="#ffffff" stroke="#d9e0ea"/>
    <circle cx="46" cy="46" r="18" fill="#7254c7"/>
    <circle cx="100" cy="30" r="14" fill="#159895"/>
    <circle cx="148" cy="58" r="16" fill="#e8a33a"/>
    <path d="M64 42 87 34M114 38l20 12" stroke="#23324d" stroke-width="5" stroke-linecap="round"/>
  </g>
  <g transform="translate(82 58)">
    <rect width="274" height="86" rx="8" fill="#ffffff" stroke="#d9e0ea"/>
    <text x="22" y="36" font-family="Arial, sans-serif" font-size="20" font-weight="700" fill="#23324d">Mobility AI</text>
    <text x="22" y="64" font-family="Arial, sans-serif" font-size="18" fill="#5f6f87">demand modeling + robust learning</text>
  </g>
</svg>
