<svg xmlns="http://www.w3.org/2000/svg" width="900" height="520" viewBox="0 0 900 520" role="img" aria-labelledby="title desc">
  <title id="title">Sustainable commuting and housing exchange</title>
  <desc id="desc">Household exchanges reduce commuting distance and carbon emissions.</desc>
  <rect width="900" height="520" fill="#fbfaf6"/>
  <g stroke="#d7dfeb" stroke-width="4">
    <path d="M96 430H804"/>
    <path d="M96 356H804"/>
    <path d="M96 282H804"/>
    <path d="M96 208H804"/>
    <path d="M150 148v282M286 148v282M422 148v282M558 148v282M694 148v282"/>
  </g>
  <g fill="#ffffff" stroke="#23324d" stroke-width="6" stroke-linejoin="round">
    <path d="M155 216 222 162l67 54v96H155Z"/>
    <path d="M612 284 679 230l67 54v96H612Z"/>
  </g>
  <rect x="203" y="248" width="38" height="64" fill="#7254c7"/>
  <rect x="660" y="316" width="38" height="64" fill="#159895"/>
  <path d="M292 196c124 8 210 50 274 126" fill="none" stroke="#e8a33a" stroke-width="12" stroke-linecap="round"/>
  <path d="m540 282 34 48-58-3" fill="none" stroke="#e8a33a" stroke-width="12" stroke-linecap="round" stroke-linejoin="round"/>
  <path d="M600 210c-118-34-210-24-306 58" fill="none" stroke="#159895" stroke-width="9" stroke-linecap="round" stroke-dasharray="24 18"/>
  <path d="m328 219-43 56 70-5" fill="none" stroke="#159895" stroke-width="9" stroke-linecap="round" stroke-linejoin="round"/>
  <g transform="translate(396 284)">
    <circle cx="0" cy="0" r="70" fill="#eff8ee" stroke="#7cbf78" stroke-width="6"/>
    <path d="M-19 11c28 10 57-4 75-38-40-4-65 5-75 38Z" fill="#7cbf78"/>
    <path d="M-38 40c28-44 58-66 92-72" fill="none" stroke="#3c8b50" stroke-width="6" stroke-linecap="round"/>
    <text x="-48" y="-14" font-family="Arial, sans-serif" font-size="22" font-weight="700" fill="#2f6d44">CO2</text>
  </g>
  <g transform="translate(82 58)">
    <rect width="300" height="86" rx="8" fill="#ffffff" stroke="#d9e0ea"/>
    <text x="22" y="36" font-family="Arial, sans-serif" font-size="20" font-weight="700" fill="#23324d">Sustainable Commuting</text>
    <text x="22" y="64" font-family="Arial, sans-serif" font-size="18" fill="#5f6f87">housing exchange + carbon reduction</text>
  </g>
</svg>
