<svg xmlns="http://www.w3.org/2000/svg" width="900" height="520" viewBox="0 0 900 520" role="img" aria-labelledby="title desc">
  <title id="title">Transit resilience and disruption management</title>
  <desc id="desc">A stylized rail network with a disruption and rerouted passenger paths.</desc>
  <rect width="900" height="520" fill="#f6f8fb"/>
  <path d="M90 408C210 312 270 326 390 230S610 122 810 98" fill="none" stroke="#7254c7" stroke-width="18" stroke-linecap="round"/>
  <path d="M88 166c148 20 222 68 332 146s210 103 388 46" fill="none" stroke="#159895" stroke-width="14" stroke-linecap="round"/>
  <path d="M134 452c118-76 204-112 322-102 111 10 186 50 310 0" fill="none" stroke="#e8a33a" stroke-width="10" stroke-linecap="round" stroke-dasharray="22 18"/>
  <g fill="#ffffff" stroke="#23324d" stroke-width="6">
    <circle cx="116" cy="386" r="23"/>
    <circle cx="246" cy="300" r="23"/>
    <circle cx="384" cy="236" r="23"/>
    <circle cx="534" cy="166" r="23"/>
    <circle cx="702" cy="118" r="23"/>
    <circle cx="806" cy="100" r="23"/>
    <circle cx="154" cy="174" r="21"/>
    <circle cx="318" cy="228" r="21"/>
    <circle cx="514" cy="336" r="21"/>
    <circle cx="704" cy="376" r="21"/>
  </g>
  <g transform="translate(437 214)">
    <circle cx="0" cy="0" r="45" fill="#fff4f1" stroke="#e5534b" stroke-width="7"/>
    <path d="M-17-18 18 18M18-18-17 18" stroke="#e5534b" stroke-width="9" stroke-linecap="round"/>
  </g>
  <g transform="translate(612 300)" fill="none" stroke="#23324d" stroke-linecap="round" stroke-linejoin="round" stroke-width="8">
    <path d="M0 58c36-30 78-32 124-6"/>
    <path d="m107 14 20 40-43 8"/>
  </g>
  <g transform="translate(82 58)">
    <rect width="236" height="86" rx="8" fill="#ffffff" stroke="#d9e0ea"/>
    <text x="22" y="36" font-family="Arial, sans-serif" font-size="20" font-weight="700" fill="#23324d">Robust Transit</text>
    <text x="22" y="64" font-family="Arial, sans-serif" font-size="18" fill="#5f6f87">disruption-aware routing</text>
  </g>
</svg>
